<svg width="27" height="27" viewBox="0 0 27 27" fill="none" xmlns="http://www.w3.org/2000/svg">
<path d="M13.3333 0C10.6963 0 8.11839 0.781986 5.92574 2.24707C3.73308 3.71216 2.02411 5.79454 1.01495 8.23089C0.00577712 10.6672 -0.258267 13.3481 0.256202 15.9345C0.770672 18.521 2.04055 20.8967 3.90525 22.7614C5.76995 24.6261 8.14572 25.896 10.7321 26.4105C13.3185 26.9249 15.9994 26.6609 18.4358 25.6517C20.8721 24.6426 22.9545 22.9336 24.4196 20.7409C25.8847 18.5483 26.6667 15.9704 26.6667 13.3333C26.6667 11.5824 26.3218 9.84856 25.6517 8.23089C24.9817 6.61321 23.9995 5.14336 22.7614 3.90524C21.5233 2.66713 20.0535 1.685 18.4358 1.01494C16.8181 0.344877 15.0843 0 13.3333 0ZM13.3333 24C10.5044 24 7.79125 22.8762 5.79087 20.8758C3.79048 18.8754 2.66667 16.1623 2.66667 13.3333C2.66373 10.9645 3.45736 8.66339 4.92001 6.8L19.8667 21.7467C18.0033 23.2093 15.7022 24.0029 13.3333 24ZM21.7467 19.8667L6.80001 4.92C8.6634 3.45735 10.9645 2.66372 13.3333 2.66667C16.1623 2.66667 18.8754 3.79047 20.8758 5.79086C22.8762 7.79125 24 10.5044 24 13.3333C24.003 15.7022 23.2093 18.0033 21.7467 19.8667Z" fill="#F03131" fill-opacity="0.52"/>
</svg>
