<svg width="16" height="16" viewBox="0 0 16 16" fill="none" xmlns="http://www.w3.org/2000/svg">
<path d="M12.9999 5L12.0066 5.99334L10.0066 3.99334L10.9999 3C11.2799 2.72 11.6399 2.58667 11.9999 2.58667C12.3599 2.58667 12.7199 2.72 12.9999 3C13.5533 3.55334 13.5533 4.44667 12.9999 5Z" fill="#F7D56E"/>
<path opacity="0.4" d="M12.0065 5.99335L4.33321 13.6667C3.77988 14.22 2.88655 14.22 2.33321 13.6667C1.77988 13.1133 1.77988 12.22 2.33321 11.6667L10.0065 3.99335L12.0065 5.99335Z" fill="#BB9CE3"/>
<path d="M6.63326 2.33334L6.9066 1.40668C6.93326 1.32001 6.9066 1.22668 6.8466 1.16001C6.7866 1.09334 6.67993 1.06668 6.59326 1.09334L5.6666 1.36668L4.73993 1.09334C4.65326 1.06668 4.55993 1.09334 4.49326 1.15334C4.4266 1.22001 4.4066 1.31334 4.43326 1.40001L4.69993 2.33334L4.4266 3.26001C4.39993 3.34668 4.4266 3.44001 4.4866 3.50668C4.55326 3.57334 4.6466 3.59334 4.73326 3.56668L5.6666 3.30001L6.59326 3.57334C6.61993 3.58001 6.63993 3.58668 6.6666 3.58668C6.73326 3.58668 6.79326 3.56001 6.8466 3.51334C6.91326 3.44668 6.93326 3.35334 6.9066 3.26668L6.63326 2.33334Z" fill="#F7D56E"/>
<path d="M3.96676 6.33334L4.24009 5.40668C4.26676 5.32001 4.24009 5.22668 4.18009 5.16001C4.11343 5.09334 4.02009 5.07334 3.93343 5.10001L3.00009 5.36668L2.07343 5.09334C1.98676 5.06668 1.89343 5.09334 1.82676 5.15334C1.76009 5.22001 1.74009 5.31334 1.76676 5.40001L2.03343 6.33334L1.76009 7.26001C1.73343 7.34668 1.76009 7.44001 1.82009 7.50668C1.88676 7.57334 1.98009 7.59334 2.06676 7.56668L2.99343 7.29334L3.92009 7.56668C3.94009 7.57334 3.96676 7.57334 3.99343 7.57334C4.06009 7.57334 4.12009 7.54668 4.17343 7.50001C4.24009 7.43334 4.26009 7.34001 4.23343 7.25334L3.96676 6.33334Z" fill="#F7D56E"/>
<path d="M13.9667 9.66667L14.2401 8.74C14.2667 8.65333 14.2401 8.56 14.1801 8.49333C14.1134 8.42667 14.0201 8.40667 13.9334 8.43333L13.0067 8.70667L12.0801 8.43333C11.9934 8.40667 11.9001 8.43333 11.8334 8.49333C11.7667 8.56 11.7467 8.65333 11.7734 8.74L12.0467 9.66667L11.7734 10.5933C11.7467 10.68 11.7734 10.7733 11.8334 10.84C11.9001 10.9067 11.9934 10.9267 12.0801 10.9L13.0067 10.6267L13.9334 10.9C13.9534 10.9067 13.9801 10.9067 14.0067 10.9067C14.0734 10.9067 14.1334 10.88 14.1867 10.8333C14.2534 10.7667 14.2734 10.6733 14.2467 10.5867L13.9667 9.66667Z" fill="#F7D56E"/>
</svg>
