<svg width="28" height="28" viewBox="0 0 28 28" fill="none" xmlns="http://www.w3.org/2000/svg">
<path d="M17.6266 9.71996L11.9066 15.4533L9.70663 13.2533C9.5871 13.1137 9.44001 13.0004 9.27459 12.9203C9.10917 12.8403 8.929 12.7953 8.74537 12.7882C8.56174 12.7811 8.37863 12.8121 8.20753 12.8791C8.03643 12.9461 7.88104 13.0478 7.7511 13.1778C7.62116 13.3077 7.51948 13.4631 7.45245 13.6342C7.38542 13.8053 7.35447 13.9884 7.36157 14.172C7.36866 14.3557 7.41363 14.5358 7.49366 14.7013C7.5737 14.8667 7.68706 15.0138 7.82663 15.1333L10.96 18.28C11.0846 18.4035 11.2323 18.5013 11.3948 18.5677C11.5572 18.634 11.7312 18.6676 11.9066 18.6666C12.2564 18.6652 12.5916 18.5263 12.84 18.28L19.5066 11.6133C19.6316 11.4893 19.7308 11.3419 19.7985 11.1794C19.8662 11.0169 19.901 10.8426 19.901 10.6666C19.901 10.4906 19.8662 10.3163 19.7985 10.1539C19.7308 9.99138 19.6316 9.84391 19.5066 9.71996C19.2568 9.47163 18.9189 9.33224 18.5666 9.33224C18.2144 9.33224 17.8764 9.47163 17.6266 9.71996ZM14 0.666626C11.3629 0.666626 8.78502 1.44861 6.59236 2.9137C4.39971 4.37878 2.69074 6.46116 1.68157 8.89751C0.672403 11.3339 0.408359 14.0148 0.922828 16.6012C1.4373 19.1876 2.70717 21.5634 4.57188 23.4281C6.43658 25.2928 8.81235 26.5626 11.3988 27.0771C13.9852 27.5916 16.6661 27.3275 19.1024 26.3184C21.5388 25.3092 23.6211 23.6002 25.0862 21.4076C26.5513 19.2149 27.3333 16.637 27.3333 14C27.3333 12.249 26.9884 10.5152 26.3184 8.89751C25.6483 7.27984 24.6662 5.80998 23.4281 4.57187C22.1899 3.33375 20.7201 2.35163 19.1024 1.68157C17.4847 1.0115 15.7509 0.666626 14 0.666626ZM14 24.6666C11.8903 24.6666 9.82801 24.041 8.07388 22.869C6.31976 21.6969 4.95259 20.031 4.14525 18.0819C3.33792 16.1328 3.12668 13.9881 3.53826 11.919C3.94983 9.84987 4.96573 7.94925 6.45749 6.45749C7.94925 4.96573 9.84987 3.94983 11.919 3.53825C13.9881 3.12667 16.1328 3.33791 18.0819 4.14524C20.031 4.95258 21.6969 6.31975 22.869 8.07388C24.041 9.828 24.6666 11.8903 24.6666 14C24.6666 16.8289 23.5428 19.542 21.5424 21.5424C19.5421 23.5428 16.8289 24.6666 14 24.6666Z" fill="#78FF8F"/>
</svg>
