<svg width="16" height="16" viewBox="0 0 16 16" fill="none" xmlns="http://www.w3.org/2000/svg">
<path d="M14.0466 3.48668C12.9733 3.38001 11.8999 3.30001 10.8199 3.24001V3.23334L10.6733 2.36668C10.5733 1.75334 10.4266 0.833344 8.86661 0.833344H7.11994C5.56661 0.833344 5.41994 1.71334 5.31328 2.36001L5.17328 3.21334C4.55328 3.25334 3.93328 3.29334 3.31328 3.35334L1.95328 3.48668C1.67328 3.51334 1.47328 3.76001 1.49994 4.03334C1.52661 4.30668 1.76661 4.50668 2.04661 4.48001L3.40661 4.34668C6.89994 4.00001 10.4199 4.13334 13.9533 4.48668C13.9733 4.48668 13.9866 4.48668 14.0066 4.48668C14.2599 4.48668 14.4799 4.29334 14.5066 4.03334C14.5266 3.76001 14.3266 3.51334 14.0466 3.48668Z" fill="#D1C2E4"/>
<path d="M12.8202 5.42666C12.6602 5.25999 12.4402 5.16666 12.2135 5.16666H3.78683C3.56016 5.16666 3.33349 5.25999 3.18016 5.42666C3.02683 5.59332 2.94016 5.81999 2.95349 6.05332L3.36683 12.8933C3.44016 13.9067 3.53349 15.1733 5.86016 15.1733H10.1402C12.4668 15.1733 12.5602 13.9133 12.6335 12.8933L13.0468 6.05999C13.0602 5.81999 12.9735 5.59332 12.8202 5.42666ZM9.10682 11.8333H6.88683C6.61349 11.8333 6.38683 11.6067 6.38683 11.3333C6.38683 11.06 6.61349 10.8333 6.88683 10.8333H9.10682C9.38016 10.8333 9.60682 11.06 9.60682 11.3333C9.60682 11.6067 9.38016 11.8333 9.10682 11.8333ZM9.66683 9.16666H6.33349C6.06016 9.16666 5.83349 8.93999 5.83349 8.66666C5.83349 8.39332 6.06016 8.16666 6.33349 8.16666H9.66683C9.94016 8.16666 10.1668 8.39332 10.1668 8.66666C10.1668 8.93999 9.94016 9.16666 9.66683 9.16666Z" fill="#D1C2E4"/>
</svg>
