<svg width="45" height="45" viewBox="0 0 45 45" fill="none" xmlns="http://www.w3.org/2000/svg">
<path d="M36.5813 10.9688L25.4438 4.5375C23.6251 3.4875 21.3751 3.4875 19.5376 4.5375L8.41885 10.9688C6.6001 12.0188 5.4751 13.9688 5.4751 16.0875V28.9125C5.4751 31.0125 6.6001 32.9625 8.41885 34.0312L19.5563 40.4625C21.3751 41.5125 23.6251 41.5125 25.4626 40.4625L36.6001 34.0312C38.4188 32.9812 39.5438 31.0312 39.5438 28.9125V16.0875C39.5251 13.9688 38.4001 12.0375 36.5813 10.9688ZM22.5001 13.7625C24.9188 13.7625 26.8688 15.7125 26.8688 18.1313C26.8688 20.55 24.9188 22.5 22.5001 22.5C20.0813 22.5 18.1313 20.55 18.1313 18.1313C18.1313 15.7312 20.0813 13.7625 22.5001 13.7625ZM27.5251 31.2375H17.4751C15.9563 31.2375 15.0751 29.55 15.9188 28.2938C17.1938 26.4 19.6688 25.125 22.5001 25.125C25.3313 25.125 27.8063 26.4 29.0813 28.2938C29.9251 29.5312 29.0251 31.2375 27.5251 31.2375Z" fill="#292D32"/>
</svg>
