<svg width="27" height="27" viewBox="0 0 27 27" fill="none" xmlns="http://www.w3.org/2000/svg">
<path d="M13.3333 12C12.9797 12 12.6406 12.1405 12.3905 12.3905C12.1405 12.6406 12 12.9797 12 13.3333V18.6667C12 19.0203 12.1405 19.3594 12.3905 19.6095C12.6406 19.8595 12.9797 20 13.3333 20C13.687 20 14.0261 19.8595 14.2761 19.6095C14.5262 19.3594 14.6667 19.0203 14.6667 18.6667V13.3333C14.6667 12.9797 14.5262 12.6406 14.2761 12.3905C14.0261 12.1405 13.687 12 13.3333 12ZM13.84 6.77333C13.5154 6.63998 13.1513 6.63998 12.8267 6.77333C12.663 6.83679 12.5135 6.93195 12.3867 7.05333C12.2689 7.18293 12.1742 7.33175 12.1067 7.49333C12.032 7.65157 11.9955 7.8251 12 8C11.999 8.17548 12.0326 8.34943 12.099 8.51188C12.1653 8.67433 12.2631 8.82208 12.3867 8.94667C12.5163 9.06444 12.6651 9.15914 12.8267 9.22667C13.0287 9.30965 13.248 9.34176 13.4653 9.32015C13.6826 9.29855 13.8913 9.22389 14.073 9.10276C14.2547 8.98162 14.4038 8.81771 14.5074 8.62543C14.6109 8.43315 14.6656 8.21838 14.6667 8C14.6618 7.64698 14.5237 7.30885 14.28 7.05333C14.1532 6.93195 14.0037 6.83679 13.84 6.77333ZM13.3333 0C10.6963 0 8.11839 0.781986 5.92574 2.24707C3.73308 3.71216 2.02411 5.79454 1.01495 8.23089C0.00577712 10.6672 -0.258267 13.3481 0.256202 15.9345C0.770672 18.521 2.04055 20.8967 3.90525 22.7614C5.76995 24.6261 8.14572 25.896 10.7321 26.4105C13.3185 26.9249 15.9994 26.6609 18.4358 25.6517C20.8721 24.6426 22.9545 22.9336 24.4196 20.7409C25.8847 18.5483 26.6667 15.9704 26.6667 13.3333C26.6667 11.5824 26.3218 9.84856 25.6517 8.23089C24.9817 6.61321 23.9995 5.14336 22.7614 3.90524C21.5233 2.66713 20.0535 1.685 18.4358 1.01494C16.8181 0.344877 15.0843 0 13.3333 0ZM13.3333 24C11.2237 24 9.16138 23.3744 7.40726 22.2023C5.65313 21.0303 4.28596 19.3644 3.47862 17.4153C2.67129 15.4662 2.46005 13.3215 2.87163 11.2524C3.28321 9.18324 4.29911 7.28262 5.79087 5.79086C7.28263 4.2991 9.18325 3.2832 11.2524 2.87162C13.3215 2.46005 15.4662 2.67128 17.4153 3.47862C19.3644 4.28595 21.0303 5.65313 22.2023 7.40725C23.3744 9.16138 24 11.2237 24 13.3333C24 16.1623 22.8762 18.8754 20.8758 20.8758C18.8754 22.8762 16.1623 24 13.3333 24Z" fill="#F7D56E"/>
</svg>
